<?xml version="1.0" encoding="utf-8"?>
<!-- Generator: Adobe Illustrator 16.0.0, SVG Export Plug-In . SVG Version: 6.00 Build 0)  -->
<!DOCTYPE svg PUBLIC "-//W3C//DTD SVG 1.1//EN" "http://www.w3.org/Graphics/SVG/1.1/DTD/svg11.dtd">
<svg version="1.1" id="Layer_1" xmlns="http://www.w3.org/2000/svg" xmlns:xlink="http://www.w3.org/1999/xlink" x="0px" y="0px"
	 width="305px" height="35.686px" viewBox="-10 0 305 35.686" enable-background="new -10 0 305 35.686" xml:space="preserve">
<path fill="#231F20" d="M-4.69,19.944c-0.039-0.198-0.039-0.396-0.079-0.595v-0.04c-0.04-0.276-0.04-0.552-0.08-0.87
	c-0.04-0.237-0.04-0.473-0.079-0.712c-0.04-0.198-0.04-0.436-0.08-0.633c-0.04-0.278-0.079-0.594-0.119-0.871
	c0-0.198-0.04-0.357-0.04-0.514c0-0.159-0.04-0.356-0.079-0.516c0-0.158-0.039-0.316-0.039-0.475V14.6v-0.117
	c0-0.08,0-0.159-0.041-0.239v-0.157c0-0.04,0-0.118-0.04-0.157V13.81c0-0.12,0-0.198-0.039-0.316c0-0.081-0.042-0.198,0-0.277
	c0-0.04,0.039-0.081,0.039-0.158c0-0.08,0.08-0.159,0.119-0.198c0.159-0.157,0.356-0.317,0.516-0.476
	c0.196-0.157,0.355-0.355,0.554-0.514c0.158-0.117,0.277-0.277,0.435-0.395c0.12-0.119,0.239-0.199,0.357-0.317l0.594-0.593
	c0.118-0.118,0.277-0.238,0.435-0.395c0.198-0.198,0.356-0.357,0.554-0.516c0.118-0.118,0.277-0.239,0.396-0.395
	c0.237-0.241,0.474-0.44,0.712-0.678c0.08-0.079,0.159-0.196,0.197-0.277c0.12-0.198,0.238-0.355,0.356-0.554
	c0.08-0.158,0.159-0.276,0.238-0.435C0.178,7.198,0.218,7.117,0.295,7c0.081-0.119,0.12-0.198,0.199-0.316
	c0.118-0.158,0.198-0.317,0.277-0.515C0.852,6.05,0.932,5.891,1.01,5.773c0.08-0.12,0.158-0.278,0.238-0.396
	c0.039-0.079,0.079-0.158,0.158-0.198C1.484,5.1,1.604,5.059,1.723,5.02c0.08,0,0.159-0.039,0.277-0.078
	c0.079,0,0.159-0.041,0.237-0.041c0.079,0,0.158-0.04,0.238-0.04c0.039,0,0.118-0.039,0.158-0.039
	c0.118-0.041,0.277-0.08,0.396-0.12c0.081,0,0.159-0.041,0.237-0.041c0.121,0,0.199-0.04,0.278-0.079h0.041
	c0.12,0,0.277-0.041,0.396-0.079c0.159-0.041,0.316-0.041,0.436-0.08c0.078-0.041,0.2-0.041,0.278-0.08
	c0.079-0.04,0.158-0.04,0.237-0.04c0.158-0.04,0.316-0.04,0.436-0.16C5.447,4.07,5.564,4.031,5.644,3.99
	c0.12-0.078,0.278-0.158,0.395-0.238C6.2,3.633,6.358,3.554,6.555,3.436c0.078-0.04,0.159-0.119,0.278-0.158
	c0.039-0.04,0.079-0.04,0.117-0.079c0.119-0.08,0.238-0.158,0.357-0.198C7.505,2.842,7.742,2.723,7.98,2.565
	C8.1,2.487,8.218,2.407,8.337,2.407c0.04,0,0.079-0.04,0.118-0.04c0.08,0,0.158,0.04,0.198,0.04c0.16,0.039,0.278,0.158,0.436,0.239
	C9.366,2.803,9.644,3.041,9.919,3.16l0.357,0.238c0.158,0.121,0.315,0.198,0.474,0.316c0.079,0.04,0.158,0.118,0.236,0.158
	c0.042,0.04,0.081,0.04,0.12,0.04L11.7,4.032c0.119,0.04,0.237,0.078,0.395,0.117c0.081,0,0.159,0.041,0.239,0.041
	c0.039,0,0.118,0.039,0.157,0.039c0.121,0.04,0.238,0.04,0.358,0.08c0.158,0.08,0.355,0.08,0.514,0.119
	c0.118,0.039,0.276,0.08,0.396,0.118h0.038c0.199,0,0.357,0.041,0.556,0.119c0.08,0,0.158,0.041,0.238,0.041
	c0.118,0.04,0.237,0.04,0.355,0.12c0.04,0,0.079,0,0.079,0.039c0.081,0.04,0.16,0.12,0.199,0.197c0.04,0.08,0.08,0.159,0.118,0.199
	c0.08,0.157,0.197,0.315,0.277,0.434c0.08,0.121,0.159,0.278,0.199,0.396c0.078,0.121,0.158,0.277,0.237,0.397
	c0.04,0.04,0.04,0.119,0.079,0.157c0.08,0.159,0.199,0.318,0.317,0.474c0.04,0.041,0.04,0.119,0.079,0.159
	c0.04,0.118,0.118,0.238,0.198,0.355c0,0.04,0.042,0.081,0.081,0.12c0.038,0.119,0.118,0.158,0.196,0.237
	c0.119,0.12,0.237,0.198,0.355,0.317c0.118,0.118,0.277,0.198,0.397,0.316c0.158,0.158,0.316,0.277,0.474,0.396
	c0.042,0,0.042,0.04,0.081,0.04l0.118,0.119c0.04,0.04,0.081,0.04,0.119,0.08c0.038,0.041,0.077,0.041,0.077,0.079l0.593,0.476
	c0.122,0.12,0.279,0.198,0.357,0.317c0.079,0.079,0.199,0.158,0.278,0.238c0.158,0.118,0.316,0.275,0.513,0.396
	c0.119,0.08,0.198,0.198,0.317,0.277c0.119,0.119,0.278,0.197,0.397,0.317c0.117,0.079,0.196,0.158,0.314,0.276
	c0.12,0.12,0.238,0.198,0.396,0.316c0.081,0.04,0.12,0.12,0.199,0.158c0.158,0.12,0.318,0.237,0.477,0.396
	c0.118,0.118,0.236,0.239,0.236,0.436v0.04c0.04,0.039,0.04,0.08,0,0.118c0,0.04,0,0.081-0.041,0.12c0,0.079,0,0.157-0.04,0.237
	s-0.04,0.197-0.04,0.277l-0.118,0.594c-0.041,0.197-0.08,0.436-0.119,0.632l-0.12,0.594c0,0.119-0.042,0.238-0.042,0.356
	c0,0.079-0.039,0.197-0.039,0.279c0,0.118-0.04,0.237-0.078,0.355c0,0.119-0.041,0.238-0.081,0.356c0,0.08-0.04,0.16-0.04,0.237
	c0,0.159-0.041,0.278-0.041,0.436v0.159c0,0.119-0.039,0.198-0.039,0.315c0,0.12-0.04,0.239-0.081,0.358v0.078
	c0,0.039,0,0.118-0.038,0.159v0.078c0,0.041,0,0.118-0.039,0.157v0.041c-0.042,0.197-0.042,0.356-0.081,0.555
	c-0.04,0.197-0.08,0.395-0.119,0.554c0,0.12-0.039,0.197-0.039,0.316c0,0.12-0.041,0.199-0.081,0.316
	c0,0.12-0.039,0.198-0.039,0.318c0,0.118-0.038,0.236-0.079,0.354l-0.118,0.238c-0.118,0.277-0.238,0.515-0.396,0.791l-0.355,0.714
	c-0.199,0.356-0.357,0.713-0.515,1.067c-0.08,0.158-0.158,0.279-0.238,0.437c-0.079,0.238-0.199,0.436-0.314,0.674
	c-0.042,0.079-0.122,0.159-0.122,0.237c-0.118,0.198-0.196,0.437-0.316,0.635c-0.119,0.277-0.278,0.514-0.395,0.791
	c-0.119,0.197-0.199,0.395-0.317,0.594c-0.12,0.198-0.199,0.436-0.316,0.633c-0.119,0.238-0.24,0.475-0.397,0.714
	c-0.039,0.077-0.118,0.156-0.196,0.196c-0.119,0.078-0.278,0.119-0.395,0.158c-0.119,0.039-0.199,0.078-0.318,0.118
	c-0.078,0-0.157,0.04-0.197,0.079c-0.119,0.039-0.277,0.079-0.395,0.118c-0.119,0.04-0.198,0.04-0.318,0.08
	c-0.039,0-0.118,0.04-0.158,0.04c-0.118,0.039-0.237,0.078-0.395,0.117s-0.355,0.119-0.514,0.159
	c-0.318,0.119-0.633,0.198-0.951,0.276l-0.476,0.119c-0.078,0-0.118,0.04-0.197,0.04c-0.118,0.04-0.237,0.079-0.396,0.119
	c-0.04,0-0.12,0.039-0.158,0.039c-0.12,0.04-0.197,0.079-0.318,0.118c-0.04,0-0.118,0.04-0.158,0.04
	c-0.156,0.04-0.316,0.079-0.435,0.118c-0.08,0.041-0.198,0.08-0.277,0.08h-0.08c-0.079,0-0.16,0.039-0.237,0.039
	c-0.238,0.08-0.476,0.157-0.713,0.197c-0.199,0.041-0.396,0.119-0.594,0.159c-0.08,0-0.12,0.039-0.198,0.08
	c-0.078,0.04-0.159,0.04-0.237,0.079c-0.118,0.039-0.199,0.078-0.278,0.078c-0.078,0.04-0.197,0.04-0.277,0.079h-0.08
	c-0.079,0.04-0.118,0.04-0.198,0H8.292c-0.12,0-0.198-0.039-0.317-0.079c-0.119-0.039-0.238-0.039-0.317-0.078l-0.356-0.12
	l-0.357-0.118c-0.158-0.039-0.355-0.12-0.515-0.158c-0.118-0.038-0.198-0.038-0.316-0.079c-0.12-0.04-0.277-0.079-0.396-0.118
	c-0.078,0-0.158-0.041-0.238-0.041c-0.118-0.04-0.276-0.079-0.395-0.118c-0.119-0.04-0.197-0.04-0.316-0.079
	c-0.118-0.039-0.197-0.039-0.317-0.079c-0.118-0.039-0.278-0.079-0.396-0.118l-0.355-0.12c-0.08-0.04-0.199-0.04-0.278-0.08
	c-0.118-0.039-0.237-0.078-0.355-0.078C2.906,30.079,2.747,30.04,2.551,30l-0.476-0.119l-0.356-0.119l-0.356-0.117
	c-0.119-0.04-0.238-0.04-0.357-0.081c-0.119-0.039-0.238-0.078-0.317-0.118c-0.038,0-0.118-0.04-0.158-0.04
	c-0.078-0.038-0.196-0.038-0.276-0.078H0.178c-0.039,0-0.079,0-0.118-0.04c-0.08,0-0.119-0.039-0.197-0.039
	c-0.158-0.039-0.277-0.119-0.357-0.237c-0.118-0.197-0.197-0.396-0.316-0.595c-0.12-0.236-0.276-0.514-0.395-0.752
	c-0.04-0.08-0.08-0.119-0.119-0.197c-0.04-0.041-0.04-0.118-0.08-0.159c-0.079-0.118-0.158-0.236-0.198-0.356
	c-0.118-0.277-0.277-0.515-0.396-0.75c-0.079-0.158-0.197-0.317-0.277-0.475c-0.118-0.239-0.237-0.477-0.396-0.675l-0.355-0.594
	c-0.08-0.158-0.158-0.317-0.237-0.435c-0.08-0.118-0.158-0.239-0.199-0.357c-0.079-0.118-0.158-0.237-0.196-0.355
	c-0.081-0.118-0.12-0.197-0.198-0.317c-0.041-0.038-0.041-0.078-0.081-0.158l-0.239-0.477c-0.04-0.077-0.119-0.157-0.119-0.238
	c-0.039-0.118-0.119-0.196-0.158-0.276c-0.038-0.078-0.079-0.118-0.079-0.197c0-0.04,0-0.118-0.04-0.158
	c-0.04-0.078-0.04-0.117-0.04-0.197c0-0.039,0-0.119-0.04-0.158v-0.12c0-0.077,0-0.157-0.041-0.276v-0.157
	c0-0.08,0-0.118-0.039-0.159v-0.08c0-0.079,0-0.157-0.04-0.237C-4.69,20.023-4.69,19.983-4.69,19.944z M-3.701,13.649
	c0,0.04,0,0.04,0.04,0.08c0.078,0.118,0.118,0.199,0.196,0.277c0.079,0.119,0.159,0.197,0.237,0.316
	c0.079,0.12,0.158,0.197,0.238,0.316c0.119,0.159,0.199,0.316,0.316,0.436c0.08,0.08,0.12,0.12,0.16,0.199
	c0.039,0.079,0.119,0.157,0.158,0.237c0.04,0.079,0.118,0.12,0.159,0.198c0.118,0.117,0.197,0.275,0.317,0.394
	C-1.84,16.143-1.84,16.22-1.76,16.22c0.119,0.08,0.158,0.199,0.197,0.278c0.158,0.197,0.276,0.356,0.395,0.555
	c0.119,0.119,0.198,0.276,0.317,0.396c0.039,0.04,0.078,0.117,0.118,0.157c0.119,0.12,0.198,0.238,0.277,0.396
	c0.079,0.119,0.197,0.198,0.277,0.317c0.158,0.197,0.316,0.436,0.473,0.633c0.042,0.038,0.042,0.078,0.081,0.119
	c0.039,0.039,0.039,0.079,0.118,0.079c0.04-0.119,0.079-0.278,0.079-0.395c0-0.08,0.04-0.119,0.04-0.199
	c0.041-0.119,0.08-0.197,0.119-0.315c0.04-0.199,0.12-0.396,0.158-0.594c0.079-0.197,0.158-0.436,0.198-0.633
	c0-0.04,0.04-0.12,0.04-0.158c0-0.04,0.04-0.119,0.04-0.158c0.04-0.118,0.08-0.237,0.118-0.395v-0.04
	c0.041-0.119,0.081-0.197,0.119-0.315l0.119-0.357c0.041-0.119,0.08-0.198,0.119-0.315c0.04-0.159,0.08-0.318,0.119-0.436
	c0.079-0.277,0.159-0.594,0.277-0.871c0-0.039,0.04-0.12,0.04-0.158c0.04-0.08,0.04-0.159,0.081-0.238
	c0-0.04,0.039-0.119,0.039-0.16c0.04-0.078,0.079-0.197,0.119-0.276c0.04-0.12,0.08-0.238,0.12-0.394
	c0.039-0.159,0.078-0.279,0.119-0.398c0.039-0.117,0.079-0.196,0.119-0.315C2.71,11.91,2.71,11.831,2.75,11.711
	c-0.04,0-0.118,0-0.118,0.041c-0.158,0.039-0.277,0.079-0.436,0.117c-0.159,0.041-0.316,0.079-0.436,0.119l-0.356,0.118
	c-0.119,0.04-0.199,0.079-0.316,0.12c-0.119,0.04-0.198,0.08-0.317,0.08c-0.079,0-0.118,0.038-0.198,0.038
	c-0.118,0.04-0.197,0.081-0.316,0.12L-0.1,12.581C-0.218,12.62-0.376,12.66-0.496,12.7c-0.118,0.04-0.277,0.078-0.395,0.118
	c-0.159,0.04-0.317,0.119-0.475,0.158c-0.04,0-0.119,0.039-0.159,0.039c-0.08,0-0.119,0.041-0.198,0.08
	c-0.199,0.04-0.357,0.081-0.555,0.158c-0.118,0.04-0.277,0.08-0.396,0.119c-0.196,0.04-0.396,0.119-0.592,0.198
	C-3.384,13.572-3.543,13.61-3.701,13.649z M14.39,11.632c0,0.079,0.041,0.12,0.041,0.158c0,0.08,0.039,0.158,0.079,0.238
	c0.04,0.12,0.081,0.198,0.119,0.315c0.04,0.16,0.119,0.318,0.16,0.516l0.235,0.713c0.042,0.158,0.119,0.316,0.16,0.476
	c0,0.079,0.039,0.157,0.079,0.238c0,0.079,0.041,0.158,0.079,0.237c0.04,0.08,0.04,0.158,0.08,0.278
	c0.04,0.157,0.079,0.316,0.118,0.436c0.08,0.237,0.159,0.436,0.238,0.672c0.08,0.197,0.119,0.396,0.198,0.594
	c0.04,0.12,0.04,0.277,0.118,0.395c0.039,0.08,0.039,0.12,0.079,0.198c0.04,0.08,0.079,0.197,0.079,0.277
	c0.041,0.119,0.041,0.197,0.08,0.316c0.04,0.118,0.08,0.279,0.159,0.395l0.119,0.355c0,0.041,0.039,0.079,0.039,0.119
	c0.041,0.081,0.041,0.199,0.08,0.277c0,0,0,0.04,0.042,0.04c0,0,0.04,0,0.04-0.04c0.038-0.038,0.038-0.077,0.079-0.118
	c0.078-0.078,0.118-0.159,0.197-0.237c0.118-0.197,0.277-0.356,0.395-0.514c0.081-0.12,0.2-0.239,0.279-0.357
	c0.08-0.118,0.158-0.197,0.236-0.316c0.08-0.119,0.159-0.197,0.237-0.317c0.081-0.08,0.119-0.198,0.198-0.277
	c0.081-0.079,0.158-0.197,0.239-0.277l0.356-0.475c0.119-0.12,0.197-0.278,0.318-0.396c0.116-0.158,0.276-0.356,0.395-0.515
	c0.119-0.119,0.196-0.277,0.316-0.396c0.118-0.156,0.237-0.277,0.356-0.435l0.12-0.119c0.078-0.08,0.119-0.198,0.198-0.276
	c0.038-0.08,0.119-0.159,0.196-0.238v-0.04c-0.079-0.04-0.196-0.04-0.276-0.08c-0.12-0.041-0.239-0.041-0.356-0.08
	c-0.158-0.04-0.317-0.119-0.515-0.119c-0.158-0.04-0.318-0.077-0.515-0.118c-0.119-0.04-0.277-0.079-0.436-0.12
	c-0.04,0-0.119-0.039-0.158-0.039c-0.119-0.04-0.239-0.08-0.317-0.119c-0.119-0.04-0.198-0.08-0.316-0.08l-0.476-0.118l-0.357-0.12
	c-0.039,0-0.118-0.039-0.157-0.039c-0.081,0-0.158-0.04-0.277-0.04l-0.357-0.119c-0.041,0-0.119-0.038-0.16-0.038
	c-0.119-0.04-0.276-0.08-0.395-0.119c-0.119-0.039-0.199-0.079-0.318-0.079c-0.118-0.04-0.236-0.08-0.354-0.08l-0.356-0.117
	l-0.357-0.12C14.468,11.632,14.429,11.632,14.39,11.632z M12.174,10.048c0-0.04-0.04-0.079-0.04-0.079
	c-0.08-0.119-0.118-0.198-0.198-0.276L11.459,8.98c-0.079-0.118-0.118-0.198-0.196-0.318c0-0.039-0.04-0.039-0.04-0.079
	c-0.079-0.119-0.159-0.196-0.239-0.316L10.748,7.91c-0.118-0.158-0.198-0.317-0.316-0.476l-0.238-0.355
	C10.154,7,10.073,6.92,10.036,6.842C9.956,6.723,9.875,6.565,9.798,6.446C9.718,6.327,9.64,6.21,9.559,6.051
	c-0.08-0.12-0.119-0.199-0.197-0.315c-0.08-0.12-0.198-0.279-0.277-0.396c-0.08-0.119-0.119-0.238-0.197-0.317
	C8.81,4.863,8.689,4.745,8.571,4.587c0-0.041-0.04-0.079-0.08-0.119L8.452,4.427l-0.04,0.039C8.333,4.584,8.254,4.744,8.174,4.861
	C8.056,5.019,7.977,5.218,7.857,5.377c-0.12,0.157-0.196,0.357-0.316,0.515c-0.04,0.08-0.118,0.197-0.158,0.277
	c-0.04,0.08-0.08,0.157-0.12,0.196c-0.039,0.041-0.039,0.08-0.079,0.12C7.067,6.642,6.989,6.802,6.869,6.92
	C6.75,7.079,6.672,7.277,6.553,7.435c-0.041,0.081-0.08,0.158-0.12,0.198C6.355,7.714,6.274,7.832,6.236,7.951
	C6.117,8.109,6.078,8.267,5.958,8.424C5.801,8.662,5.641,8.941,5.483,9.177L5.127,9.771c-0.04,0.08-0.079,0.117-0.119,0.198
	c-0.04,0.04-0.08,0.079-0.08,0.158C7.304,10.048,9.718,10.048,12.174,10.048z M12.174,11.355H4.889
	c0.04,0.039,0.08,0.118,0.12,0.118c0.04,0.04,0.04,0.079,0.079,0.119c0.158,0.198,0.237,0.436,0.396,0.634
	c0.158,0.197,0.317,0.435,0.474,0.673l0.357,0.594c0.041,0.04,0.041,0.079,0.078,0.118c0.118,0.119,0.199,0.238,0.237,0.356
	c0.081,0.118,0.159,0.237,0.198,0.356c0.08,0.119,0.118,0.197,0.198,0.315c0.079,0.119,0.158,0.278,0.237,0.396
	c0.08,0.158,0.198,0.279,0.278,0.435c0.12,0.199,0.277,0.395,0.436,0.633l0.356,0.594c0.04,0.04,0.079,0.118,0.118,0.158
	c0.04-0.08,0.08-0.119,0.158-0.197c0.08-0.119,0.158-0.198,0.238-0.317c0.081-0.119,0.119-0.197,0.199-0.316l0.236-0.356
	c0.158-0.239,0.317-0.516,0.476-0.752c0.117-0.197,0.236-0.357,0.395-0.554c0.08-0.12,0.198-0.277,0.277-0.395
	c0.039-0.08,0.079-0.158,0.119-0.199c0.119-0.157,0.198-0.315,0.317-0.435c0.078-0.118,0.158-0.276,0.275-0.395
	c0.08-0.119,0.12-0.237,0.198-0.356l0.237-0.356c0.041-0.041,0.041-0.08,0.08-0.12c0.158-0.238,0.277-0.436,0.435-0.673
	C12.174,11.394,12.174,11.355,12.174,11.355z M7.542,17.608v-0.04c-0.04-0.079-0.079-0.117-0.118-0.197
	c-0.08-0.08-0.119-0.159-0.198-0.277c-0.119-0.158-0.198-0.317-0.316-0.436c-0.04-0.04-0.08-0.079-0.119-0.158
	c-0.079-0.12-0.159-0.277-0.237-0.396c-0.08-0.119-0.159-0.197-0.197-0.315l-0.238-0.357c-0.039-0.04-0.081-0.117-0.119-0.197
	c-0.119-0.16-0.197-0.279-0.278-0.436C5.642,14.72,5.604,14.6,5.522,14.521c-0.078-0.117-0.158-0.197-0.237-0.316
	c-0.08-0.119-0.118-0.237-0.198-0.316c-0.119-0.158-0.237-0.355-0.357-0.515c-0.079-0.119-0.116-0.196-0.197-0.315
	c-0.041-0.08-0.08-0.159-0.158-0.198c-0.081-0.117-0.159-0.198-0.198-0.317c-0.079-0.118-0.119-0.198-0.198-0.275l-0.04-0.04
	c0,0.08-0.039,0.118-0.039,0.197c-0.04,0.08-0.04,0.158-0.08,0.277c0,0.04-0.039,0.078-0.039,0.118c0,0.04-0.04,0.119-0.04,0.158
	c-0.039,0.158-0.08,0.316-0.158,0.435c0,0.041-0.041,0.081-0.041,0.12c-0.04,0.157-0.079,0.316-0.157,0.475
	c-0.04,0.119-0.121,0.278-0.121,0.396c-0.079,0.317-0.157,0.593-0.237,0.912c-0.04,0.197-0.119,0.395-0.197,0.592
	c0,0.041-0.04,0.12-0.04,0.158c-0.041,0.08-0.081,0.197-0.081,0.277l-0.118,0.356c-0.039,0.118-0.08,0.198-0.08,0.317
	c-0.039,0.117-0.078,0.277-0.118,0.396c-0.04,0.119-0.08,0.277-0.119,0.394L2.04,18.517c-0.04,0.16-0.08,0.316-0.12,0.438
	c-0.04,0.157-0.08,0.317-0.119,0.436v0.117c0.079-0.038,0.119-0.038,0.198-0.078c0.118-0.04,0.277-0.08,0.395-0.12
	c0.118-0.039,0.198-0.039,0.316-0.078c0.121-0.04,0.238-0.119,0.397-0.158c0.156-0.041,0.356-0.119,0.514-0.158
	c0.198-0.081,0.395-0.157,0.553-0.198l0.356-0.119c0.081,0,0.119-0.04,0.197-0.04c0.198-0.04,0.357-0.119,0.555-0.197
	c0.12-0.04,0.237-0.078,0.396-0.118c0.158-0.041,0.315-0.12,0.514-0.199c0.118-0.04,0.277-0.078,0.396-0.117
	c0.197-0.08,0.396-0.12,0.593-0.198c0.079-0.04,0.199-0.08,0.277-0.119C7.423,17.648,7.462,17.648,7.542,17.608z M15.458,19.232
	v-0.04c-0.04-0.118-0.08-0.198-0.12-0.317l-0.237-0.711l-0.119-0.357l-0.12-0.475c-0.038-0.119-0.077-0.198-0.077-0.316
	c0-0.12-0.081-0.198-0.12-0.317c-0.04-0.118-0.078-0.237-0.118-0.317l-0.119-0.355c-0.04-0.12-0.079-0.278-0.119-0.395
	c-0.041-0.159-0.12-0.316-0.159-0.476c0-0.08-0.04-0.118-0.04-0.198l-0.118-0.355c-0.04-0.117-0.079-0.197-0.119-0.316
	c-0.04-0.08-0.04-0.159-0.08-0.238c-0.039-0.119-0.039-0.198-0.079-0.317c-0.04-0.158-0.119-0.277-0.158-0.436
	c-0.079-0.198-0.119-0.356-0.197-0.553l-0.119-0.476c0-0.04-0.04-0.119-0.04-0.159c0,0-0.041,0-0.041,0.04
	c-0.078,0.119-0.157,0.196-0.197,0.316c-0.079,0.12-0.118,0.239-0.197,0.356c-0.081,0.158-0.199,0.277-0.278,0.436
	c-0.078,0.119-0.157,0.198-0.198,0.318c-0.078,0.118-0.158,0.197-0.198,0.316c-0.04,0.041-0.04,0.119-0.078,0.198
	c-0.12,0.157-0.199,0.277-0.318,0.396l-0.238,0.355c-0.039,0.08-0.079,0.197-0.158,0.237c-0.079,0.08-0.118,0.199-0.198,0.316
	c-0.078,0.12-0.197,0.278-0.277,0.396c-0.079,0.118-0.158,0.197-0.237,0.315c-0.08,0.118-0.158,0.277-0.237,0.396
	c-0.078,0.12-0.159,0.197-0.237,0.316c-0.078,0.12-0.158,0.239-0.198,0.316c-0.08,0.12-0.198,0.279-0.275,0.396
	c0.038,0,0.078,0.04,0.118,0.04c0.078,0,0.117,0,0.198,0.04c0.158,0.08,0.317,0.08,0.475,0.158c0.119,0.039,0.237,0.039,0.356,0.08
	l0.355,0.118c0.12,0.039,0.198,0.079,0.316,0.079l0.356,0.12c0.118,0.039,0.237,0.08,0.317,0.12
	c0.119,0.039,0.199,0.039,0.315,0.078c0.16,0.041,0.318,0.118,0.516,0.118c0.158,0.04,0.316,0.079,0.435,0.119
	c0.119,0.041,0.197,0.041,0.317,0.079c0.119,0.04,0.238,0.08,0.396,0.119c0.118,0.037,0.199,0.078,0.317,0.118
	s0.236,0.04,0.317,0.078L15.1,19.11L15.458,19.232C15.379,19.232,15.42,19.232,15.458,19.232z M15.854,21.409
	c-0.08,0-0.119,0.039-0.158,0.078c-0.118,0.079-0.199,0.119-0.277,0.238l-0.08,0.078c-0.317,0.158-0.553,0.396-0.871,0.634
	c-0.118,0.079-0.198,0.159-0.316,0.238l-0.357,0.237c-0.119,0.118-0.275,0.198-0.395,0.315c-0.078,0.08-0.158,0.119-0.238,0.158
	c-0.157,0.119-0.277,0.199-0.435,0.316c-0.08,0.04-0.118,0.119-0.199,0.158c-0.118,0.08-0.196,0.159-0.315,0.237
	c-0.12,0.08-0.198,0.12-0.318,0.198c-0.158,0.12-0.316,0.277-0.515,0.396c-0.039,0.041-0.118,0.078-0.158,0.119
	c-0.12,0.08-0.197,0.117-0.316,0.197c-0.198,0.119-0.355,0.277-0.554,0.396l-0.118,0.119c-0.08,0.041-0.119,0.079-0.197,0.119
	c0,0-0.042,0.04-0.042,0.081l0.476,0.116c0.16,0.041,0.318,0.12,0.476,0.159c0.038,0,0.08,0.041,0.158,0.041
	c0.12,0,0.278,0.04,0.396,0.078c0.158,0.039,0.316,0.08,0.435,0.119c0.198,0.039,0.397,0.119,0.593,0.159
	c0.04,0,0.119,0.038,0.158,0.038c0.081,0.04,0.16,0.04,0.238,0.08l0.356,0.118c0.119,0.039,0.239,0.039,0.317,0.079
	c0.079,0.038,0.159,0.038,0.238,0.038l0.476,0.121c0.04,0,0.079,0.039,0.12,0.039c0.196,0.038,0.395,0.119,0.591,0.158
	c0.199,0.038,0.397,0.118,0.595,0.196c0.159,0.04,0.317,0.081,0.515,0.12c0.041,0,0.08,0,0.08-0.04c0-0.277-0.039-0.596-0.08-0.871
	v-0.237c0-0.277-0.039-0.514-0.039-0.792V25.01c0-0.276-0.04-0.555-0.08-0.831c0-0.157-0.04-0.355-0.04-0.515
	c0-0.277-0.041-0.593-0.08-0.871c0-0.157,0-0.276-0.039-0.436v-0.356v-0.078v-0.157L15.854,21.409L15.854,21.409z M1.01,27.624h0.04
	c0.119-0.04,0.278-0.079,0.396-0.118c0.119-0.04,0.277-0.08,0.395-0.118c0.119-0.04,0.199-0.08,0.318-0.12
	c0.117-0.039,0.197-0.039,0.276-0.078c0.119-0.04,0.197-0.08,0.276-0.118c0.121-0.04,0.198-0.04,0.317-0.08
	c0.081-0.041,0.198-0.041,0.278-0.079c0.159-0.08,0.316-0.119,0.436-0.16c0.079,0,0.119-0.038,0.198-0.038
	c0.119-0.041,0.276-0.119,0.396-0.119c0.157-0.039,0.317-0.118,0.515-0.158c0.158-0.078,0.355-0.119,0.514-0.158
	c0.119-0.039,0.198-0.077,0.317-0.118c0.078-0.039,0.197-0.078,0.276-0.078c0.121-0.04,0.278-0.081,0.397-0.12
	c0.157-0.079,0.315-0.12,0.514-0.158c0.079-0.039,0.158-0.039,0.237-0.077c-0.118-0.119-0.316-0.159-0.436-0.279
	c-0.159-0.157-0.356-0.237-0.554-0.396c-0.119-0.08-0.196-0.119-0.316-0.198c-0.119-0.08-0.238-0.117-0.317-0.197
	c-0.158-0.119-0.317-0.198-0.475-0.316s-0.357-0.198-0.516-0.316c-0.157-0.118-0.316-0.198-0.475-0.317
	c-0.198-0.117-0.356-0.237-0.553-0.356c-0.159-0.078-0.278-0.197-0.396-0.276c-0.159-0.118-0.318-0.198-0.476-0.316
	C2.396,22.637,2.237,22.518,2.04,22.4c-0.199-0.117-0.357-0.237-0.516-0.396c-0.079-0.039-0.119-0.117-0.237-0.117v0.078
	c0,0.277-0.039,0.515-0.039,0.792c0,0.198,0,0.396-0.041,0.554c-0.04,0.278,0,0.554-0.04,0.83c-0.04,0.239,0,0.437-0.04,0.674
	s0,0.515-0.04,0.753c-0.04,0.236,0,0.476-0.04,0.673c0,0.316-0.04,0.674-0.04,0.989C0.97,27.347,1.01,27.506,1.01,27.624z
	 M2.04,20.814c0.158,0.12,0.316,0.197,0.474,0.317c0.119,0.078,0.237,0.158,0.356,0.277c0.198,0.119,0.395,0.237,0.594,0.395
	c0.039,0.04,0.079,0.04,0.119,0.08l0.475,0.356c0.158,0.118,0.357,0.198,0.516,0.316c0.119,0.119,0.277,0.197,0.395,0.277
	l0.713,0.476c0.119,0.079,0.197,0.158,0.316,0.198c0.119,0.08,0.198,0.157,0.317,0.197c0.158,0.119,0.315,0.199,0.475,0.317
	c0.199,0.117,0.395,0.276,0.594,0.396c0.118,0.117,0.277,0.196,0.436,0.276c0,0,0.039,0,0.08,0.041v-5.819
	c-0.041,0-0.08,0-0.12,0.04c-0.08,0-0.118,0.039-0.196,0.078c-0.12,0.041-0.199,0.041-0.318,0.079
	c-0.158,0.041-0.316,0.119-0.435,0.159c-0.041,0-0.079,0.039-0.119,0.039c-0.118,0.039-0.238,0.119-0.396,0.159
	c-0.159,0.038-0.278,0.118-0.436,0.157c-0.119,0.04-0.197,0.08-0.317,0.119l-0.475,0.118c-0.158,0.04-0.317,0.119-0.436,0.158
	c-0.159,0.04-0.356,0.12-0.514,0.158c-0.08,0.039-0.199,0.039-0.277,0.079c-0.119,0.039-0.277,0.119-0.396,0.158
	c-0.2,0.079-0.396,0.119-0.594,0.197c-0.119,0.039-0.277,0.08-0.396,0.119C2.355,20.697,2.198,20.736,2.04,20.814z M14.944,20.46
	h-0.04c-0.198-0.08-0.436-0.12-0.634-0.199c-0.04,0-0.078-0.04-0.118-0.04c-0.12-0.039-0.198-0.039-0.317-0.077
	c-0.159-0.041-0.316-0.12-0.475-0.16l-0.475-0.118c-0.199-0.04-0.396-0.118-0.594-0.157c-0.078,0-0.158-0.041-0.238-0.08
	c-0.119-0.039-0.196-0.079-0.316-0.079c-0.119-0.041-0.237-0.041-0.317-0.079c-0.158-0.04-0.317-0.08-0.437-0.12l-0.474-0.117
	c-0.158-0.04-0.316-0.119-0.473-0.158c-0.042,0-0.121-0.041-0.161-0.041c-0.158,0-0.315-0.078-0.435-0.118
	c-0.079-0.041-0.158-0.041-0.237-0.041v5.819c0.08-0.04,0.119-0.079,0.158-0.119c0.079-0.04,0.118-0.119,0.197-0.157
	c0.118-0.08,0.199-0.16,0.315-0.239c0.119-0.08,0.198-0.157,0.317-0.237c0.041-0.039,0.081-0.039,0.119-0.08
	c0.198-0.118,0.357-0.275,0.556-0.396c0.196-0.158,0.435-0.316,0.632-0.436c0.197-0.118,0.356-0.277,0.554-0.396
	c0.08-0.039,0.12-0.119,0.199-0.158c0.158-0.079,0.316-0.196,0.435-0.316c0.161-0.119,0.278-0.199,0.436-0.317
	c0.039-0.04,0.08-0.04,0.12-0.078c0.119-0.08,0.237-0.159,0.315-0.238c0.118-0.081,0.237-0.157,0.357-0.277
	c0.119-0.08,0.238-0.199,0.356-0.279c0.12-0.117,0.277-0.196,0.395-0.275C14.787,20.577,14.864,20.499,14.944,20.46z M14.904,28.415
	C14.904,28.377,14.904,28.377,14.904,28.415c-0.04-0.038-0.117-0.078-0.158-0.078l-0.356-0.118c-0.12-0.04-0.198-0.079-0.318-0.079
	c-0.158-0.04-0.316-0.079-0.515-0.119c-0.158-0.041-0.277-0.079-0.435-0.118c-0.118-0.039-0.238-0.039-0.356-0.08
	c-0.119-0.04-0.239-0.079-0.396-0.118c-0.197-0.04-0.395-0.12-0.554-0.159c-0.158-0.039-0.316-0.078-0.474-0.157l-0.358-0.12
	c-0.116-0.039-0.236-0.039-0.354-0.078c-0.12-0.04-0.278-0.08-0.396-0.118c-0.16-0.04-0.318-0.08-0.515-0.12
	c-0.158-0.038-0.277-0.077-0.436-0.118c-0.041,0-0.118-0.04-0.198-0.04v3.326c0.08,0,0.198-0.04,0.277-0.079l0.356-0.119
	c0.08,0,0.119-0.04,0.197-0.04c0.158-0.039,0.318-0.119,0.476-0.16c0.197-0.039,0.355-0.077,0.515-0.116
	c0.197-0.041,0.395-0.119,0.594-0.159c0.158-0.04,0.316-0.118,0.476-0.158c0.04,0,0.078-0.039,0.118-0.039
	c0.121-0.039,0.198-0.078,0.318-0.078c0.039,0,0.118-0.041,0.158-0.041c0.118-0.039,0.237-0.078,0.396-0.118
	c0.079,0,0.158-0.039,0.237-0.079c0.12-0.04,0.277-0.078,0.396-0.118c0.197-0.04,0.396-0.118,0.594-0.158
	c0.198-0.079,0.435-0.118,0.672-0.198C14.826,28.415,14.864,28.415,14.904,28.415z M7.857,26.793c-0.039,0-0.079,0.04-0.12,0.04
	c-0.157,0.041-0.277,0.118-0.435,0.158c-0.119,0.04-0.198,0.08-0.316,0.08c-0.12,0.038-0.199,0.038-0.317,0.078
	c-0.159,0.04-0.315,0.118-0.475,0.158c-0.079,0.041-0.199,0.041-0.276,0.08c-0.12,0.038-0.2,0.079-0.317,0.118
	c-0.159,0.039-0.278,0.078-0.436,0.118c-0.198,0.04-0.355,0.119-0.515,0.158c-0.159,0.04-0.316,0.119-0.475,0.158
	c-0.198,0.039-0.356,0.119-0.554,0.158c-0.158,0.04-0.277,0.08-0.436,0.158c-0.118,0.039-0.277,0.079-0.396,0.12
	c-0.081,0.038-0.198,0.077-0.317,0.077c-0.079,0-0.119,0.04-0.198,0.08h0.04c0.12,0.038,0.198,0.038,0.317,0.078
	c0.118,0.04,0.237,0.04,0.355,0.081c0.12,0.038,0.197,0.038,0.317,0.078c0.159,0.04,0.278,0.117,0.436,0.117H3.78l0.357,0.12
	c0.118,0.04,0.277,0.079,0.395,0.118c0.081,0,0.119,0.041,0.197,0.041c0.12,0.039,0.198,0.039,0.318,0.078l0.356,0.119
	c0.118,0.038,0.237,0.078,0.396,0.118c0.157,0.039,0.316,0.119,0.515,0.119c0.278,0.078,0.515,0.116,0.791,0.196
	c0.158,0.079,0.355,0.12,0.515,0.159h0.118v-0.04c0-0.276,0.041-0.594,0.041-0.87c0-0.355,0-0.713,0.04-1.07
	c0.039-0.355,0-0.713,0-1.068C7.857,26.912,7.857,26.873,7.857,26.793z M-3.858,15.59v0.041c0.04,0.08,0,0.158,0.04,0.276
	c0,0.12,0.039,0.238,0.039,0.396v0.158c0,0.158,0.04,0.316,0.04,0.514v0.157c0,0.16,0.041,0.319,0.041,0.436
	c0,0.159,0.04,0.316,0.04,0.475c0,0.199,0.04,0.358,0.04,0.555c0,0.159,0.04,0.317,0.04,0.476s0.039,0.316,0.039,0.434
	c0.04,0.278,0.079,0.516,0.12,0.792c0,0.16,0.04,0.317,0.04,0.477v0.039c0,0.04,0.04,0.04,0.08,0.04
	c0.197-0.04,0.396-0.079,0.554-0.119c0.158-0.039,0.316-0.08,0.436-0.119c0.159-0.04,0.316-0.078,0.475-0.078
	c0.079,0,0.158-0.04,0.237-0.04c0.08,0,0.158-0.039,0.238-0.039c0.079,0,0.158-0.041,0.237-0.041c0.08,0,0.159-0.039,0.197-0.039
	c0.081,0,0.159-0.041,0.238-0.041c0.08,0,0.159-0.041,0.197-0.079C-0.53,20.219-0.53,20.18-0.57,20.18
	c-0.08-0.118-0.159-0.237-0.277-0.356c-0.04-0.04-0.04-0.079-0.081-0.118c-0.078-0.118-0.197-0.199-0.276-0.316
	C-1.321,19.27-1.4,19.112-1.52,18.993c-0.08-0.078-0.118-0.159-0.198-0.276c-0.08-0.078-0.119-0.159-0.198-0.237
	c-0.12-0.119-0.198-0.278-0.317-0.396c0,0,0-0.04-0.04-0.04c-0.04-0.04-0.08-0.117-0.118-0.158c-0.04-0.08-0.119-0.118-0.159-0.197
	c-0.119-0.12-0.197-0.277-0.316-0.436c-0.079-0.12-0.159-0.197-0.238-0.278c-0.039-0.08-0.079-0.118-0.158-0.198
	c-0.119-0.157-0.237-0.316-0.356-0.436C-3.583,15.985-3.701,15.788-3.858,15.59C-3.858,15.63-3.858,15.59-3.858,15.59z
	 M21.041,15.194c-0.278,0.395-0.595,0.752-0.871,1.147c-0.277,0.396-0.594,0.751-0.871,1.11c-0.277,0.395-0.554,0.751-0.871,1.147
	c-0.317,0.356-0.553,0.751-0.871,1.109c0.039,0,0.078,0.039,0.078,0.039c0.08,0,0.16,0.039,0.239,0.039
	c0.158,0.04,0.315,0.04,0.474,0.079l0.476,0.118c0.198,0.04,0.356,0.08,0.556,0.08h0.038c0.081,0,0.199,0.039,0.276,0.08
	c0.081,0,0.198,0.038,0.278,0.038h0.041c0.039,0,0.077,0,0.118,0.039c0.04,0.04,0.079,0,0.119,0c0-0.077,0.039-0.157,0.039-0.197
	c0-0.119,0.041-0.238,0.041-0.315c0-0.08,0-0.119,0.039-0.2v-0.038c0.04-0.04,0.04-0.08,0.04-0.12v-0.077
	c0-0.118,0.039-0.239,0.08-0.356v-0.041c0-0.117,0.04-0.236,0.078-0.316c0-0.119,0.04-0.197,0.04-0.315
	c0-0.08,0.041-0.159,0.041-0.239c0-0.119,0.039-0.237,0.08-0.316c0-0.12,0.038-0.237,0.038-0.356c0-0.079,0.041-0.157,0.041-0.237
	c0.04-0.12,0.04-0.278,0.079-0.396c0-0.118,0.04-0.237,0.04-0.356c0-0.08,0-0.157,0.041-0.238c0-0.119,0.04-0.197,0.04-0.277
	c0-0.117,0.04-0.238,0.04-0.356C21.041,15.314,21.081,15.274,21.041,15.194L21.041,15.194z M-2.79,22.043
	c0.118,0.197,0.198,0.355,0.316,0.515c0.119,0.197,0.198,0.396,0.317,0.594c0.04,0.119,0.117,0.197,0.158,0.316
	c0.08,0.12,0.158,0.277,0.198,0.396c0.08,0.159,0.198,0.317,0.277,0.476l0.237,0.476c0.079,0.118,0.159,0.277,0.238,0.396
	c0.079,0.118,0.159,0.276,0.237,0.396c0.04,0.08,0.119,0.159,0.159,0.277c0.04,0.118,0.119,0.237,0.158,0.356
	c0.041,0.119,0.12,0.197,0.199,0.316l0.039,0.039v-0.078c0-0.199,0-0.396,0.04-0.555v-0.476c0-0.119,0.041-0.276,0.041-0.395v-0.516
	v-0.079c0.04-0.078,0.04-0.198,0.04-0.277v-0.516v-0.079c0.039-0.079,0.039-0.158,0.039-0.237v-0.356v-0.118
	c0-0.041,0-0.12,0.04-0.159v-0.237c0-0.119,0-0.277,0.04-0.396v-0.039v-0.396v-0.08H-0.06c-0.159,0.04-0.316,0.08-0.436,0.119
	c-0.078,0-0.158,0.04-0.197,0.04c-0.08,0-0.158,0-0.239,0.038c-0.118,0.04-0.196,0.04-0.315,0.08c-0.079,0-0.158,0.04-0.237,0.04
	c-0.158,0.039-0.277,0.079-0.435,0.12c-0.04,0-0.119,0.039-0.158,0.039c-0.118,0-0.237,0.04-0.356,0.04
	c-0.079,0-0.158,0.04-0.239,0.04C-2.75,22.002-2.75,22.002-2.79,22.043z M17.476,26.159c0.042-0.039,0.042-0.078,0.081-0.078
	l0.476-0.951c0.039-0.119,0.118-0.236,0.196-0.395l0.239-0.476c0.119-0.198,0.198-0.436,0.317-0.673
	c0.08-0.199,0.197-0.397,0.316-0.556l0.355-0.713l0.119-0.237c0.079-0.158,0.159-0.355,0.278-0.515v-0.079
	c-0.079,0-0.16-0.039-0.238-0.039c-0.161-0.039-0.318-0.039-0.476-0.078c-0.197-0.042-0.436-0.08-0.632-0.119
	c-0.199-0.041-0.397-0.08-0.555-0.119l-0.476-0.12c-0.077,0-0.118-0.039-0.196-0.039h-0.08v0.039c0,0.159,0,0.317,0.039,0.476
	c0,0.119,0.041,0.238,0.041,0.356v0.99c0,0.039,0,0.12,0.039,0.158v0.356c0.039,0.04,0.039,0.119,0.039,0.198v0.357
	c0.041,0.078,0.041,0.118,0.041,0.196v0.356c0,0.04,0.04,0.119,0.04,0.158v0.396c0.038,0.08,0.038,0.119,0.038,0.198v0.396
	c0.042,0.08,0.042,0.12,0.042,0.197v0.278C17.476,26.12,17.476,26.12,17.476,26.159L17.476,26.159z M14.271,10.286
	C14.312,10.286,14.312,10.286,14.271,10.286c0.159,0.039,0.237,0.079,0.356,0.118c0.12,0.041,0.277,0.08,0.396,0.121
	c0.08,0.039,0.199,0.039,0.279,0.077c0.197,0.039,0.396,0.12,0.593,0.16c0.237,0.08,0.516,0.158,0.751,0.198
	c0.198,0.04,0.397,0.078,0.554,0.156c0.08,0.041,0.199,0.041,0.277,0.081c0.042,0,0.119,0.04,0.158,0.04
	c0.08,0,0.199,0.04,0.277,0.08c0.12,0.04,0.238,0.079,0.316,0.079l0.356,0.12c0.119,0.039,0.199,0.079,0.317,0.118
	c0.119,0.039,0.238,0.079,0.316,0.12c0.08,0,0.122,0.039,0.199,0.039c0-0.039,0-0.039-0.038-0.08
	c-0.039-0.04-0.12-0.079-0.199-0.159c-0.158-0.118-0.277-0.237-0.435-0.355c-0.12-0.119-0.237-0.197-0.356-0.317
	c-0.079-0.08-0.198-0.158-0.278-0.197l-0.04-0.042c-0.119-0.078-0.196-0.157-0.316-0.276c-0.12-0.079-0.197-0.198-0.316-0.276
	c-0.12-0.119-0.238-0.199-0.396-0.318c-0.199-0.157-0.357-0.316-0.516-0.436c-0.039-0.039-0.117-0.079-0.198-0.119
	c-0.158-0.197-0.396-0.317-0.554-0.475c-0.079-0.081-0.159-0.12-0.238-0.199c-0.04-0.039-0.078-0.039-0.118-0.079
	c-0.118-0.079-0.197-0.198-0.317-0.277h-0.08c-0.039,0.08-0.118,0.199-0.118,0.277l-0.116,0.239
	c-0.041,0.118-0.081,0.197-0.12,0.316c-0.04,0.118-0.118,0.238-0.158,0.355c-0.04,0.119-0.118,0.239-0.118,0.356
	c0,0.04-0.04,0.08-0.04,0.12C14.39,10.048,14.35,10.166,14.271,10.286z M1.445,8.306c-0.039,0.039-0.077,0.039-0.077,0.08
	c-0.16,0.117-0.278,0.274-0.436,0.395C0.772,8.94,0.614,9.097,0.456,9.216C0.337,9.335,0.219,9.413,0.099,9.534
	C-0.06,9.692-0.218,9.85-0.415,10.009l-0.198,0.197c-0.119,0.081-0.198,0.198-0.277,0.278c-0.12,0.08-0.198,0.198-0.277,0.278
	l-0.316,0.316c-0.119,0.119-0.237,0.278-0.395,0.396c-0.04,0-0.04,0.04-0.08,0.079l-0.278,0.279c0,0-0.04,0.04-0.04,0.08
	c0.197-0.041,0.356-0.12,0.555-0.158c0.118-0.041,0.276-0.081,0.395-0.12c0.118-0.04,0.198-0.081,0.315-0.081
	c0.12-0.039,0.278-0.079,0.397-0.117c0.118-0.04,0.198-0.079,0.317-0.119c0.158-0.04,0.276-0.08,0.436-0.118
	c0.039,0,0.118-0.04,0.156-0.04c0.081-0.041,0.12-0.041,0.199-0.08C0.613,11.039,0.692,11,0.811,11c0.12-0.04,0.198-0.08,0.317-0.12
	c0.158-0.039,0.317-0.08,0.476-0.158c0.118-0.039,0.277-0.118,0.396-0.118c0.237-0.079,0.475-0.12,0.711-0.199
	c0.04,0,0.04-0.039,0.081-0.039c-0.119-0.16-0.198-0.317-0.317-0.477C2.435,9.81,2.395,9.733,2.355,9.693
	c-0.04-0.08-0.08-0.121-0.118-0.2C2.118,9.297,2,9.097,1.882,8.94L1.643,8.582C1.524,8.423,1.524,8.386,1.445,8.306z M6.512,4.981
	H6.473C6.315,5.099,6.157,5.177,5.998,5.258C5.84,5.337,5.72,5.454,5.562,5.534c-0.04,0.041-0.118,0.041-0.158,0.081L5.047,5.85
	C4.929,5.93,4.85,5.97,4.77,6.05C4.652,6.128,4.533,6.209,4.453,6.286C4.294,6.365,4.137,6.485,3.978,6.564
	c-0.117,0.08-0.236,0.12-0.316,0.197c-0.119,0.12-0.276,0.2-0.436,0.279C3.108,7.117,2.95,7.158,2.832,7.237
	c-0.121,0.08-0.199,0.119-0.318,0.197c-0.079,0.042-0.079,0.081-0.04,0.159c0.039,0.04,0.08,0.121,0.119,0.198
	c0.08,0.118,0.158,0.237,0.198,0.355l0.236,0.357c0.12,0.239,0.278,0.436,0.396,0.674c0,0,0,0.04,0.041,0.04
	c0.039,0.081,0.119,0.158,0.197,0.238c0.041,0,0.041-0.041,0.08-0.08C3.82,9.217,3.938,9.059,4.017,8.941
	c0.12-0.158,0.198-0.316,0.318-0.476c0.079-0.118,0.118-0.198,0.197-0.317C4.573,8.069,4.613,7.99,4.691,7.91
	c0.12-0.158,0.238-0.317,0.317-0.515c0.04-0.08,0.079-0.158,0.119-0.198c0.119-0.197,0.237-0.356,0.356-0.515
	C5.602,6.486,5.721,6.326,5.84,6.129c0.04-0.079,0.118-0.198,0.158-0.278c0.039-0.078,0.081-0.116,0.119-0.197
	c0.079-0.119,0.119-0.198,0.198-0.316c0.041-0.04,0.078-0.079,0.118-0.159C6.472,5.139,6.512,5.059,6.512,4.981z M14.033,7.355
	C12.886,6.604,11.738,5.85,10.55,5.1v0.079c0.039,0.081,0.119,0.159,0.157,0.277c0.041,0.079,0.081,0.119,0.119,0.159
	c0.081,0.079,0.119,0.198,0.2,0.277L11.5,6.604c0.08,0.157,0.198,0.277,0.278,0.436c0.078,0.118,0.157,0.237,0.237,0.394
	c0.078,0.119,0.199,0.279,0.276,0.397c0.041,0.039,0.08,0.12,0.12,0.157c0.078,0.158,0.158,0.278,0.276,0.397
	c0.041,0.038,0.081,0.119,0.119,0.157c0.08,0.199,0.2,0.356,0.318,0.516c0.039,0.08,0.119,0.119,0.158,0.198
	c0-0.04,0.041-0.04,0.041-0.08c0-0.04,0.04-0.119,0.078-0.158l0.12-0.357c0.039-0.079,0.078-0.197,0.118-0.276l0.12-0.239
	c0-0.04,0.038-0.118,0.079-0.158l0.119-0.237C13.955,7.632,13.994,7.514,14.033,7.355z"/>
<g>
	<g transform="translate(0 19)">
		<path fill="#231F20" d="M35.044,5.353c-0.967,0-1.848-0.172-2.673-0.483c-0.826-0.313-1.535-0.768-2.134-1.364
			c-0.597-0.599-1.081-1.28-1.394-2.105c-0.341-0.796-0.512-1.706-0.512-2.701v-0.057c0-0.91,0.143-1.762,0.456-2.587
			c0.312-0.826,0.738-1.537,1.307-2.134c0.568-0.597,1.223-1.081,1.991-1.451c0.767-0.341,1.65-0.54,2.587-0.54
			c1.08,0,1.99,0.199,2.787,0.567c0.795,0.398,1.45,0.911,1.961,1.536c0.512,0.654,0.911,1.394,1.167,2.247
			c0.256,0.852,0.369,1.706,0.369,2.616v0.455c0,0.171-0.028,0.342-0.028,0.513h-8.955c0.17,0.824,0.541,1.45,1.08,1.876
			c0.539,0.428,1.223,0.627,2.047,0.627c0.598,0,1.167-0.114,1.621-0.313c0.484-0.198,0.967-0.539,1.479-0.994l2.075,1.847
			c-0.597,0.74-1.336,1.337-2.218,1.763C37.233,5.154,36.209,5.353,35.044,5.353z M37.404-2.354
			c-0.113-0.825-0.398-1.479-0.853-1.99c-0.456-0.512-1.081-0.769-1.848-0.769c-0.769,0-1.394,0.256-1.849,0.74
			c-0.483,0.483-0.767,1.166-0.938,1.991h5.488V-2.354z M43.177-7.785h3.64v1.849c0.198-0.284,0.426-0.54,0.683-0.795
			c0.256-0.257,0.511-0.483,0.824-0.654c0.313-0.199,0.654-0.341,0.995-0.456c0.37-0.112,0.796-0.171,1.251-0.171
			c1.394,0,2.474,0.428,3.243,1.281c0.769,0.851,1.137,2.018,1.137,3.497v8.332h-3.64v-7.165c0-0.853-0.199-1.508-0.569-1.961
			c-0.397-0.427-0.938-0.654-1.62-0.654c-0.711,0-1.252,0.228-1.678,0.654c-0.398,0.427-0.625,1.08-0.625,1.961v7.165h-3.641V-7.785
			H43.177z M63.423,8.965c-1.052,0-2.076-0.114-3.014-0.341c-0.967-0.228-1.848-0.569-2.674-0.996l1.251-2.729
			c0.683,0.368,1.337,0.653,2.02,0.852c0.683,0.199,1.451,0.313,2.304,0.313c1.249,0,2.161-0.283,2.756-0.881
			c0.598-0.596,0.911-1.479,0.911-2.615V1.941c-0.541,0.653-1.137,1.166-1.763,1.535c-0.655,0.371-1.451,0.541-2.418,0.541
			c-0.739,0-1.479-0.143-2.161-0.398c-0.683-0.257-1.308-0.653-1.82-1.165c-0.54-0.512-0.938-1.137-1.251-1.877
			s-0.454-1.592-0.454-2.56V-2.04c0-0.966,0.17-1.819,0.483-2.56c0.312-0.738,0.739-1.365,1.279-1.876
			c0.54-0.513,1.136-0.911,1.82-1.166c0.682-0.256,1.394-0.397,2.132-0.397c0.996,0,1.82,0.171,2.446,0.539
			c0.655,0.371,1.194,0.826,1.706,1.365v-1.677h3.64V2.14c0,2.275-0.54,3.981-1.622,5.063C68.399,7.8,67.631,8.255,66.692,8.51
			C65.756,8.822,64.646,8.965,63.423,8.965z M63.85,1.002c0.456,0,0.853-0.085,1.251-0.227c0.398-0.142,0.711-0.342,0.996-0.626
			c0.283-0.256,0.511-0.568,0.653-0.939c0.17-0.37,0.228-0.767,0.228-1.194v-0.057c0-0.426-0.086-0.825-0.228-1.194
			c-0.17-0.371-0.37-0.682-0.653-0.938c-0.285-0.255-0.625-0.454-0.996-0.625c-0.398-0.143-0.797-0.228-1.251-0.228
			c-0.455,0-0.853,0.086-1.223,0.228c-0.37,0.141-0.71,0.341-0.995,0.625c-0.285,0.256-0.513,0.57-0.654,0.938
			c-0.171,0.37-0.228,0.768-0.228,1.194v0.057c0,0.911,0.285,1.622,0.883,2.161C62.201,0.719,62.941,1.002,63.85,1.002L63.85,1.002z
			 M73.433-12.448h3.84v3.242h-3.84V-12.448z M73.547-7.785h3.64V5.07h-3.64V-7.785z M80.146-7.785h3.639v1.849
			c0.2-0.284,0.428-0.54,0.683-0.795c0.256-0.257,0.512-0.483,0.825-0.654c0.313-0.199,0.625-0.341,0.995-0.456
			c0.37-0.112,0.796-0.171,1.251-0.171c1.394,0,2.475,0.428,3.243,1.281c0.766,0.851,1.136,2.018,1.136,3.497v8.332h-3.64v-7.165
			c0-0.853-0.197-1.508-0.567-1.961c-0.37-0.427-0.938-0.654-1.62-0.654c-0.711,0-1.251,0.228-1.679,0.654
			c-0.399,0.427-0.626,1.08-0.626,1.961v7.165h-3.639V-7.785L80.146-7.785z M100.705,5.353c-0.967,0-1.85-0.172-2.673-0.483
			c-0.824-0.313-1.536-0.768-2.134-1.364C95.3,2.907,94.816,2.225,94.504,1.4c-0.341-0.796-0.511-1.706-0.511-2.701v-0.057
			c0-0.91,0.17-1.762,0.456-2.587c0.313-0.826,0.739-1.537,1.308-2.134s1.223-1.081,1.99-1.451c0.768-0.341,1.649-0.54,2.588-0.54
			c1.08,0,1.99,0.199,2.786,0.567c0.796,0.398,1.45,0.911,1.963,1.536c0.511,0.654,0.91,1.394,1.165,2.247
			c0.257,0.852,0.37,1.706,0.37,2.616v0.455c0,0.171-0.028,0.342-0.028,0.513h-8.957c0.17,0.824,0.54,1.45,1.079,1.876
			c0.542,0.428,1.223,0.627,2.048,0.627c0.598,0,1.167-0.114,1.622-0.313c0.483-0.198,0.967-0.539,1.478-0.994l2.076,1.847
			c-0.598,0.74-1.336,1.337-2.218,1.763C102.893,5.154,101.87,5.353,100.705,5.353L100.705,5.353z M103.065-2.354
			c-0.114-0.825-0.399-1.479-0.854-1.99c-0.455-0.512-1.08-0.769-1.849-0.769c-0.767,0-1.393,0.256-1.848,0.74
			c-0.483,0.483-0.768,1.166-0.939,1.991h5.489L103.065-2.354L103.065-2.354z M114.951,5.353c-0.967,0-1.849-0.172-2.674-0.483
			c-0.824-0.313-1.536-0.768-2.132-1.364c-0.598-0.599-1.081-1.28-1.394-2.105c-0.34-0.796-0.512-1.706-0.512-2.701v-0.057
			c0-0.91,0.172-1.762,0.456-2.587c0.313-0.826,0.74-1.537,1.309-2.134c0.568-0.597,1.222-1.081,1.99-1.451
			c0.766-0.341,1.648-0.54,2.587-0.54c1.081,0,1.99,0.199,2.788,0.567c0.797,0.398,1.451,0.911,1.961,1.536
			c0.513,0.654,0.911,1.394,1.167,2.247c0.255,0.852,0.37,1.706,0.37,2.616v0.455c0,0.171-0.03,0.342-0.03,0.513h-8.958
			c0.171,0.824,0.541,1.45,1.081,1.876c0.54,0.428,1.222,0.627,2.047,0.627c0.597,0,1.164-0.114,1.62-0.313
			c0.483-0.198,0.967-0.539,1.479-0.994l2.075,1.847c-0.597,0.74-1.336,1.337-2.218,1.763
			C117.141,5.154,116.118,5.353,114.951,5.353L114.951,5.353z M117.312-2.354c-0.115-0.825-0.398-1.479-0.853-1.99
			c-0.456-0.512-1.08-0.769-1.849-0.769c-0.768,0-1.393,0.256-1.85,0.74c-0.483,0.483-0.766,1.166-0.937,1.991h5.488V-2.354z
			 M123.083-7.785h3.64v2.588c0.37-0.881,0.882-1.592,1.508-2.104c0.626-0.541,1.507-0.768,2.588-0.711v3.811h-0.2
			c-1.222,0-2.161,0.37-2.872,1.109c-0.682,0.739-1.052,1.876-1.052,3.44v4.749h-3.64V-7.785H123.083L123.083-7.785z
			 M132.725-12.448h3.837v3.242h-3.837V-12.448z M132.81-7.785h3.64V5.07h-3.64V-7.785z M139.408-7.785h3.639v1.849
			c0.199-0.284,0.426-0.54,0.682-0.795c0.258-0.257,0.513-0.483,0.825-0.654c0.314-0.199,0.625-0.341,0.995-0.456
			c0.371-0.112,0.796-0.171,1.251-0.171c1.395,0,2.475,0.428,3.243,1.281c0.767,0.851,1.136,2.018,1.136,3.497v8.332h-3.638v-7.165
			c0-0.853-0.199-1.508-0.57-1.961c-0.369-0.427-0.937-0.654-1.621-0.654c-0.71,0-1.249,0.228-1.676,0.654
			c-0.398,0.427-0.627,1.08-0.627,1.961v7.165h-3.639V-7.785L139.408-7.785z M159.652,8.965c-1.049,0-2.074-0.114-3.014-0.341
			c-0.968-0.228-1.848-0.569-2.674-0.996l1.252-2.729c0.681,0.368,1.336,0.653,2.02,0.852c0.682,0.199,1.45,0.313,2.304,0.313
			c1.251,0,2.16-0.283,2.757-0.881c0.598-0.596,0.91-1.479,0.91-2.615V1.941c-0.541,0.653-1.137,1.166-1.764,1.535
			c-0.652,0.371-1.452,0.541-2.416,0.541c-0.74,0-1.479-0.143-2.162-0.398c-0.683-0.257-1.309-0.653-1.819-1.165
			c-0.541-0.512-0.938-1.137-1.251-1.877c-0.313-0.74-0.455-1.592-0.455-2.56V-2.04c0-0.966,0.171-1.819,0.484-2.56
			c0.313-0.738,0.739-1.365,1.279-1.876c0.541-0.513,1.138-0.911,1.819-1.166c0.682-0.256,1.394-0.397,2.134-0.397
			c0.994,0,1.817,0.171,2.443,0.539c0.655,0.371,1.197,0.826,1.707,1.365v-1.677h3.641V2.14c0,2.275-0.541,3.981-1.621,5.063
			c-0.597,0.597-1.366,1.052-2.303,1.308C161.984,8.822,160.906,8.965,159.652,8.965z M160.079,1.002
			c0.455,0,0.854-0.085,1.251-0.227c0.399-0.142,0.711-0.342,0.996-0.626c0.285-0.256,0.512-0.568,0.654-0.939
			c0.169-0.37,0.227-0.767,0.227-1.194v-0.057c0-0.426-0.083-0.825-0.227-1.194c-0.171-0.371-0.369-0.682-0.654-0.938
			c-0.285-0.255-0.626-0.454-0.996-0.625c-0.371-0.143-0.797-0.228-1.251-0.228c-0.453,0-0.852,0.086-1.221,0.228
			c-0.371,0.141-0.713,0.341-0.996,0.625c-0.284,0.256-0.511,0.57-0.653,0.938c-0.172,0.37-0.229,0.768-0.229,1.194v0.057
			c0,0.911,0.284,1.622,0.883,2.161C158.432,0.719,159.171,1.002,160.079,1.002L160.079,1.002z M181.977,5.353
			c-0.966,0-1.848-0.172-2.673-0.54c-0.825-0.342-1.536-0.825-2.133-1.424c-0.598-0.596-1.054-1.308-1.395-2.103
			c-0.34-0.796-0.51-1.678-0.51-2.589v-0.057c0-0.91,0.17-1.762,0.51-2.587c0.341-0.826,0.797-1.536,1.395-2.133
			c0.597-0.597,1.308-1.081,2.133-1.451c0.825-0.341,1.732-0.54,2.729-0.54c1.224,0,2.22,0.199,3.017,0.567
			c0.796,0.398,1.507,0.911,2.104,1.593l-2.245,2.389c-0.427-0.426-0.854-0.768-1.281-1.023c-0.426-0.255-0.995-0.398-1.649-0.398
			c-0.456,0-0.881,0.086-1.251,0.284c-0.369,0.17-0.712,0.427-0.996,0.768c-0.283,0.313-0.481,0.682-0.651,1.109
			c-0.143,0.427-0.229,0.882-0.229,1.366v0.056c0,0.484,0.086,0.968,0.229,1.394c0.141,0.427,0.368,0.796,0.651,1.138
			c0.284,0.313,0.628,0.568,1.024,0.769c0.398,0.171,0.854,0.284,1.337,0.284c0.598,0,1.137-0.113,1.592-0.37
			c0.455-0.256,0.909-0.567,1.366-0.995l2.131,2.162c-0.624,0.682-1.335,1.25-2.131,1.706C184.31,5.154,183.256,5.353,181.977,5.353
			L181.977,5.353z M195.455,5.353c-0.995,0-1.903-0.172-2.758-0.513c-0.853-0.34-1.592-0.825-2.19-1.422
			c-0.625-0.597-1.109-1.307-1.45-2.104c-0.341-0.796-0.541-1.677-0.541-2.616v-0.057c0-0.938,0.17-1.791,0.541-2.616
			c0.341-0.796,0.852-1.508,1.45-2.133c0.598-0.625,1.365-1.081,2.217-1.45c0.854-0.342,1.764-0.541,2.788-0.541
			c0.995,0,1.906,0.171,2.76,0.513c0.853,0.342,1.592,0.825,2.188,1.422c0.627,0.596,1.109,1.308,1.452,2.104
			c0.339,0.796,0.541,1.678,0.541,2.616v0.057c0,0.938-0.172,1.792-0.541,2.615c-0.343,0.797-0.854,1.507-1.479,2.133
			c-0.626,0.598-1.367,1.081-2.218,1.452C197.389,5.182,196.452,5.353,195.455,5.353L195.455,5.353z M195.484,2.225
			c0.542,0,0.995-0.086,1.395-0.284c0.397-0.171,0.769-0.427,1.051-0.769c0.285-0.313,0.513-0.682,0.654-1.108
			c0.143-0.427,0.229-0.881,0.229-1.366v-0.057c0-0.483-0.086-0.938-0.229-1.365c-0.17-0.427-0.398-0.796-0.682-1.137
			c-0.312-0.342-0.653-0.597-1.081-0.768c-0.426-0.199-0.881-0.285-1.366-0.285c-0.539,0-0.994,0.087-1.393,0.285
			c-0.397,0.17-0.767,0.426-1.051,0.768c-0.286,0.313-0.512,0.682-0.655,1.11c-0.143,0.427-0.228,0.881-0.228,1.365v0.057
			c0,0.483,0.085,0.938,0.228,1.365c0.171,0.427,0.399,0.796,0.684,1.138c0.313,0.342,0.653,0.598,1.079,0.769
			C194.518,2.112,194.972,2.225,195.484,2.225z M204.584-7.785h3.64v1.849c0.199-0.284,0.428-0.54,0.681-0.795
			c0.258-0.257,0.513-0.483,0.827-0.654c0.313-0.199,0.653-0.341,1.023-0.456c0.369-0.112,0.797-0.171,1.251-0.171
			c0.852,0,1.591,0.171,2.19,0.541c0.625,0.342,1.081,0.853,1.422,1.536c0.567-0.683,1.193-1.195,1.876-1.536
			s1.479-0.512,2.36-0.512c1.365,0,2.418,0.398,3.185,1.194c0.769,0.797,1.165,1.992,1.165,3.527v8.389h-3.639v-7.166
			c0-0.853-0.171-1.506-0.541-1.962c-0.369-0.426-0.908-0.654-1.592-0.654c-0.681,0-1.222,0.229-1.621,0.654
			c-0.397,0.427-0.599,1.081-0.599,1.962v7.166h-3.637v-7.166c0-0.853-0.171-1.506-0.541-1.962c-0.37-0.426-0.909-0.654-1.593-0.654
			c-0.682,0-1.224,0.229-1.621,0.654c-0.398,0.425-0.597,1.081-0.597,1.962v7.166h-3.639V-7.785H204.584z"/>
		<circle fill="#231F20" cx="171.769" cy="2.709" r="1.878"/>
	</g>
	<path fill="#BFBFBF" d="M245.704,1.177c0,0-4.01,7.707-9.328,17.006c-5.146,8.986-9.611,16.18-9.896,16.663L245.704,1.177z"/>
	<path fill="#7A2A90" d="M229.949,28.76h60.314l-6.143-10.721l6.143-10.75h-48.059L229.949,28.76z"/>
	<path fill="#DFDFDF" d="M226.452,34.876l0.028-0.059c0.342-0.626,4.35-7.991,9.441-16.891c5.09-8.901,9.412-16.067,9.781-16.693
		l0.029-0.057c0,0-0.087,0.142-0.229,0.371l-18.825,32.929C226.537,34.761,226.452,34.876,226.452,34.876z"/>
	<g>
		<path fill="#FFFFFF" d="M246.898,17.045v6.057c0,0.142-0.057,0.257-0.143,0.371s-0.228,0.142-0.37,0.142h-1.28
			c-0.143,0-0.255-0.057-0.341-0.142c-0.086-0.086-0.143-0.229-0.143-0.371V11.983c0-0.142,0.057-0.227,0.2-0.256
			c0.141-0.028,0.256,0,0.34,0.085l7.139,6.74c0.111,0.086,0.197,0.142,0.256,0.086c0.057-0.028,0.113-0.113,0.113-0.257v-6.171
			c0-0.142,0.056-0.254,0.142-0.37c0.086-0.085,0.229-0.142,0.37-0.142h1.279c0.144,0,0.257,0.057,0.371,0.142
			c0.086,0.085,0.144,0.228,0.144,0.37v11.091c0,0.142-0.058,0.228-0.2,0.256c-0.143,0.029-0.255,0-0.37-0.085l-7.108-6.626
			c-0.113-0.086-0.198-0.114-0.255-0.086C246.984,16.789,246.898,16.904,246.898,17.045z M258.813,14.23v1.962
			c0,0.142,0.058,0.256,0.142,0.37c0.086,0.085,0.229,0.143,0.371,0.143h4.749c0.142,0,0.257,0.057,0.37,0.143
			c0.086,0.085,0.144,0.227,0.144,0.37v1.054c0,0.141-0.058,0.255-0.144,0.369c-0.085,0.084-0.229,0.142-0.37,0.142h-4.749
			c-0.143,0-0.256,0.058-0.371,0.143c-0.084,0.085-0.142,0.228-0.142,0.37v1.791c0,0.143,0.058,0.257,0.142,0.371
			c0.086,0.086,0.229,0.142,0.371,0.142h5.461c0.143,0,0.256,0.057,0.369,0.143c0.112,0.085,0.143,0.228,0.143,0.37v1.052
			c0,0.142-0.058,0.255-0.143,0.369s-0.227,0.144-0.369,0.144h-7.734c-0.144,0-0.257-0.058-0.37-0.144
			c-0.114-0.086-0.143-0.228-0.143-0.369V12.269c0-0.144,0.057-0.257,0.143-0.371c0.084-0.086,0.227-0.142,0.37-0.142h7.734
			c0.143,0,0.256,0.056,0.369,0.142c0.085,0.085,0.143,0.227,0.143,0.371v0.995c0,0.141-0.058,0.255-0.143,0.37
			s-0.227,0.142-0.369,0.142h-5.461c-0.143,0-0.256,0.058-0.371,0.143C258.869,13.973,258.813,14.087,258.813,14.23z M281.08,12.21
			l-4.096,11.232c-0.058,0.144-0.142,0.199-0.283,0.199s-0.228-0.056-0.282-0.17l-2.815-6.313c-0.058-0.142-0.113-0.199-0.199-0.199
			s-0.171,0.057-0.199,0.199l-2.813,6.256c-0.058,0.113-0.172,0.172-0.313,0.172c-0.145,0-0.228-0.059-0.285-0.199l-4.038-11.177
			c-0.056-0.142-0.056-0.227,0.03-0.34c0.057-0.084,0.17-0.143,0.313-0.143h1.419c0.143,0,0.286,0.058,0.4,0.143
			c0.141,0.086,0.229,0.198,0.255,0.34l1.991,5.575c0.057,0.142,0.114,0.199,0.171,0.199c0.084,0,0.143-0.057,0.198-0.171
			l2.587-5.857c0.058-0.114,0.144-0.17,0.314-0.17s0.255,0.056,0.313,0.17l2.587,5.885c0.058,0.113,0.114,0.172,0.199,0.172
			c0.086,0,0.142-0.059,0.171-0.2l2.047-5.573c0.058-0.142,0.144-0.228,0.258-0.341c0.142-0.086,0.253-0.142,0.396-0.142h1.423
			c0.142,0,0.255,0.056,0.313,0.142C281.107,11.955,281.138,12.069,281.08,12.21L281.08,12.21z"/>
	</g>
	
		<radialGradient id="SVGID_1_" cx="-276.7612" cy="-249.9841" r="0.739" gradientTransform="matrix(63.943 22.8408 -22.8408 63.9431 12223.207 22324.2383)" gradientUnits="userSpaceOnUse">
		<stop  offset="0" style="stop-color:#000000"/>
		<stop  offset="0" style="stop-color:#333333;stop-opacity:0.61"/>
		<stop  offset="0.2727" style="stop-color:#666666;stop-opacity:0.2101"/>
		<stop  offset="1" style="stop-color:#999999;stop-opacity:0"/>
	</radialGradient>
	<path fill="url(#SVGID_1_)" d="M245.733,1.148c-0.74,5.147-3.129,11.744-6.968,18.427c-3.812,6.685-8.304,12.115-12.342,15.355
		L245.733,1.148z"/>
</g>
</svg>
